<?xml version="1.0" encoding="UTF-8" standalone="no"?>
<!-- Created with Inkscape (http://www.inkscape.org/) -->

<svg
   xmlns:osb="http://www.openswatchbook.org/uri/2009/osb"
   xmlns:dc="http://purl.org/dc/elements/1.1/"
   xmlns:cc="http://creativecommons.org/ns#"
   xmlns:rdf="http://www.w3.org/1999/02/22-rdf-syntax-ns#"
   xmlns:svg="http://www.w3.org/2000/svg"
   xmlns="http://www.w3.org/2000/svg"
   xmlns:xlink="http://www.w3.org/1999/xlink"
   xmlns:sodipodi="http://sodipodi.sourceforge.net/DTD/sodipodi-0.dtd"
   xmlns:inkscape="http://www.inkscape.org/namespaces/inkscape"
   width="120"
   height="120"
   id="svg2"
   version="1.1"
   inkscape:version="0.48.5 r10040"
   inkscape:export-filename="C:\Users\Juan Fernandez\SimbologiaSVG\hospital.png"
   inkscape:export-xdpi="90"
   inkscape:export-ydpi="90"
   sodipodi:docname="Documento nuevo 1">
  <defs
     id="defs4">
    <linearGradient
       id="linearGradient3766"
       osb:paint="solid">
      <stop
         style="stop-color:#5dffff;stop-opacity:1;"
         offset="0"
         id="stop3768" />
    </linearGradient>
    <linearGradient
       inkscape:collect="always"
       xlink:href="#linearGradient3766"
       id="linearGradient3770"
       x1="30.456424"
       y1="998.5086"
       x2="54.527298"
       y2="998.5086"
       gradientUnits="userSpaceOnUse" />
  </defs>
  <sodipodi:namedview
     id="base"
     pagecolor="#ffffff"
     bordercolor="#666666"
     borderopacity="1.0"
     inkscape:pageopacity="0.0"
     inkscape:pageshadow="2"
     inkscape:zoom="3.825"
     inkscape:cx="60"
     inkscape:cy="60"
     inkscape:document-units="px"
     inkscape:current-layer="layer1"
     showgrid="false"
     inkscape:window-width="1366"
     inkscape:window-height="706"
     inkscape:window-x="-8"
     inkscape:window-y="-8"
     inkscape:window-maximized="1" />
  <metadata
     id="metadata7">
    <rdf:RDF>
      <cc:Work
         rdf:about="">
        <dc:format>image/svg+xml</dc:format>
        <dc:type
           rdf:resource="http://purl.org/dc/dcmitype/StillImage" />
        <dc:title></dc:title>
      </cc:Work>
    </rdf:RDF>
  </metadata>
  <g
     inkscape:label="Capa 1"
     inkscape:groupmode="layer"
     id="layer1"
     transform="translate(0,-932.36218)">
    <rect
       style="fill:#ffffff;fill-rule:evenodd;stroke:none;stroke-width:1.42640793000000010px;stroke-linecap:butt;stroke-linejoin:miter;stroke-opacity:1;fill-opacity:1"
       id="rect3005"
       width="63.865749"
       height="68.612785"
       x="29.729025"
       y="940.72821" />
    <rect
       style="fill:#ffffff;fill-rule:evenodd;stroke:none;stroke-width:1.03026127999999990px;stroke-linecap:butt;stroke-linejoin:miter;stroke-opacity:1;fill-opacity:1"
       id="rect3007"
       width="110.3268"
       height="71.872551"
       x="7.0588236"
       y="965.32623" />
    <g
       transform="translate(11.830508,-9.440665)"
       id="layer1-9"
       inkscape:label="Capa 1">
      <path
         id="rect3796"
         d="m 32.640625,960.17733 0,74.18747 -6.3125,0 0,-49.49997 -21.3124997,0 0,49.49997 -3.28125,0 0,4.25 96.5312497,0 0,-4.25 -4.875,0 0,-49.49997 -20.375,0 0,49.49997 -5.875,0 0,-74.18747 -34.5,0 z"
         style="fill:#b06cc8;fill-opacity:1;fill-rule:nonzero;stroke:#000000;stroke-width:1;stroke-miterlimit:4;stroke-opacity:1;stroke-dasharray:none"
         inkscape:connector-curvature="0" />
      <path
         transform="matrix(1.3481067,0,0,1.1544829,-14.83697,950.83223)"
         d="m 56.840078,22.350674 c 0,5.746315 -3.795659,10.404624 -8.477842,10.404624 -4.682183,0 -8.477842,-4.658309 -8.477842,-10.404624 0,-5.746315 3.795659,-10.404624 8.477842,-10.404624 4.682183,0 8.477842,4.658309 8.477842,10.404624 z"
         sodipodi:ry="10.404624"
         sodipodi:rx="8.4778423"
         sodipodi:cy="22.350674"
         sodipodi:cx="48.362236"
         id="path3820"
         style="fill:#ffffff;fill-opacity:1;fill-rule:nonzero;stroke:#000000;stroke-width:0.80157489;stroke-miterlimit:4;stroke-opacity:1;stroke-dasharray:none"
         sodipodi:type="arc" />
      <path
         id="rect3822"
         d="m 48.984375,969.92733 0,4.375 -4.375,0 0,3.09375 4.375,0 0,4.375 3.09375,0 0,-4.375 4.375,0 0,-3.09375 -4.375,0 0,-4.375 -3.09375,0 z"
         style="fill:#b06cc8;fill-opacity:1;fill-rule:nonzero;stroke:#000000;stroke-width:0.5;stroke-miterlimit:4;stroke-opacity:1;stroke-dasharray:none"
         inkscape:connector-curvature="0" />
      <path
         id="rect3860"
         d="m 8.0156253,991.11483 0,4.4375 5.3749997,0 0,-4.4375 -5.3749997,0 z m 9.9999997,0 0,4.4375 5.375,0 0,-4.4375 -5.375,0 z m 58,0 0,4.4375 5.375,0 0,-4.4375 -5.375,0 z m 10,0 0,4.4375 5.375,0 0,-4.4375 -5.375,0 z m -77.9999997,9.99997 0,4.4375 5.3749997,0 0,-4.4375 -5.3749997,0 z m 9.9999997,0 0,4.4375 5.375,0 0,-4.4375 -5.375,0 z m 58,0 0,4.4375 5.375,0 0,-4.4375 -5.375,0 z m 10,0 0,4.4375 5.375,0 0,-4.4375 -5.375,0 z m -44.4375,7.5625 0,23.9688 17,0 0,-23.9688 -17,0 z m -33.5624997,2.4375 0,4.4375 5.3749997,0 0,-4.4375 -5.3749997,0 z m 9.9999997,0 0,4.4375 5.375,0 0,-4.4375 -5.375,0 z m 58,0 0,4.4375 5.375,0 0,-4.4375 -5.375,0 z m 10,0 0,4.4375 5.375,0 0,-4.4375 -5.375,0 z"
         style="fill:#ffffff;fill-opacity:1;fill-rule:nonzero;stroke:#000000;stroke-width:1;stroke-miterlimit:4;stroke-opacity:1;stroke-dasharray:none"
         inkscape:connector-curvature="0" />
    </g>
  </g>
</svg>
