<?xml version="1.0" encoding="UTF-8" standalone="no"?>
<!-- Created with Inkscape (http://www.inkscape.org/) -->

<svg
   xmlns:dc="http://purl.org/dc/elements/1.1/"
   xmlns:cc="http://creativecommons.org/ns#"
   xmlns:rdf="http://www.w3.org/1999/02/22-rdf-syntax-ns#"
   xmlns:svg="http://www.w3.org/2000/svg"
   xmlns="http://www.w3.org/2000/svg"
   xmlns:sodipodi="http://sodipodi.sourceforge.net/DTD/sodipodi-0.dtd"
   xmlns:inkscape="http://www.inkscape.org/namespaces/inkscape"
   width="120"
   height="120"
   id="svg2"
   version="1.1"
   inkscape:version="0.48.5 r10040"
   inkscape:export-filename="C:\Users\Juan Fernandez\SimbologiaSVG\cpt_gris.png"
   inkscape:export-xdpi="90"
   inkscape:export-ydpi="90"
   sodipodi:docname="cpt_azul.svg">
  <defs
     id="defs4">
    <inkscape:perspective
       inkscape:persp3d-origin="8 : 5.3333333 : 1"
       id="perspective3435"
       sodipodi:type="inkscape:persp3d"
       inkscape:vp_x="0 : 8 : 1"
       inkscape:vp_y="0 : 1000 : 0"
       inkscape:vp_z="16 : 8 : 1" />
  </defs>
  <sodipodi:namedview
     id="base"
     pagecolor="#ffffff"
     bordercolor="#666666"
     borderopacity="1.0"
     inkscape:pageopacity="0.0"
     inkscape:pageshadow="2"
     inkscape:zoom="2.36"
     inkscape:cx="50"
     inkscape:cy="50"
     inkscape:document-units="px"
     inkscape:current-layer="layer1-94"
     showgrid="false"
     inkscape:window-width="1366"
     inkscape:window-height="706"
     inkscape:window-x="-8"
     inkscape:window-y="-8"
     inkscape:window-maximized="1" />
  <metadata
     id="metadata7">
    <rdf:RDF>
      <cc:Work
         rdf:about="">
        <dc:format>image/svg+xml</dc:format>
        <dc:type
           rdf:resource="http://purl.org/dc/dcmitype/StillImage" />
        <dc:title />
      </cc:Work>
    </rdf:RDF>
  </metadata>
  <g
     inkscape:label="Capa 1"
     inkscape:groupmode="layer"
     id="layer1"
     transform="translate(0,-932.36218)">
    <g
       transform="translate(9.5538046,-9.1048237)"
       id="layer1-94"
       inkscape:label="Capa 1">
      <rect
         rx="0.097632706"
         y="949.38538"
         x="15.232348"
         height="41.959881"
         width="69.544502"
         id="rect2997"
         style="fill:#ffffff;fill-opacity:1;fill-rule:evenodd;stroke:none" />
      <rect
         rx="0.11059222"
         y="981.59949"
         x="-2.5821879"
         height="69.915253"
         width="105.97202"
         id="rect2999"
         style="fill:#ffffff;fill-opacity:1;fill-rule:evenodd;stroke:none" />
      <g
         style="fill:#0000a8;fill-opacity:1"
         inkscape:label="Capa 1"
         id="layer1-9"
         transform="translate(-0.86682647,-0.26634064)">
        <g
           style="fill:#0000a8;fill-opacity:1"
           id="g3006">
          <path
             inkscape:connector-curvature="0"
             id="rect2987"
             style="fill:#0000a8;fill-opacity:1;stroke-width:1;stroke-linecap:butt;stroke-linejoin:miter;stroke-miterlimit:4;stroke-opacity:1;stroke-dasharray:none;stroke-dashoffset:0;marker:none;visibility:visible;display:inline;overflow:visible;enable-background:accumulate"
             d="m 26.714284,958.43361 0,30 -19.9999997,0 0,54.99999 34.9999997,0 0.217865,-31.2397 19.782135,0 0,31.2397 35,0 0,-54.99999 -20,0 0,-30 z m 21.34375,4 6.65625,0 0,14 13.34375,0 0,7 -13.34375,0 0,14 -6.65625,0 0,-14 -13.34375,0 0,-7 13.34375,0 0,-14 z m -36.34375,45.99999 20,0 0,10 -20,0 0,-10 z m 60,0 20,0 0,10 -20,0 0,-10 z m -60,14 20,0 0,10 -20,0 0,-10 z m 60,0 20,0 0,10 -20,0 0,-10 z" />
        </g>
      </g>
    </g>
  </g>
</svg>
